<svg xmlns="http://www.w3.org/2000/svg" viewBox="0 0 1200 630" width="1200" height="630"><defs><linearGradient id="n" x1="0" y1="0" x2="0" y2="1"><stop offset="0" stop-color="#140e1f"/><stop offset=".7" stop-color="#3b2a52"/><stop offset="1" stop-color="#5b4373"/></linearGradient><linearGradient id="e" x1="0" y1="0" x2="0" y2="1"><stop offset="0" stop-color="#fffdf7"/><stop offset="1" stop-color="#e9dfcb"/></linearGradient></defs><rect width="1200" height="630" fill="url(#n)"/><circle cx="1010" cy="150" r="80" fill="#f5c86a"/><g fill="url(#e)" stroke="#c9b48a" stroke-width="3"><rect x="640" y="560" width="560" height="70"/><rect x="720" y="500" width="480" height="60"/><rect x="800" y="440" width="400" height="60"/><rect x="880" y="380" width="320" height="60"/><rect x="960" y="320" width="240" height="60"/><rect x="1040" y="260" width="160" height="60"/></g><g fill="#e0a02b"><rect x="640" y="560" width="560" height="8"/><rect x="720" y="500" width="480" height="8"/><rect x="800" y="440" width="400" height="8"/><rect x="880" y="380" width="320" height="8"/><rect x="960" y="320" width="240" height="8"/><rect x="1040" y="260" width="160" height="8"/></g><g fill="#b8502e"><g transform="translate(760 548)"><ellipse rx="13" ry="11"/><ellipse cx="-15" cy="-15" rx="5" ry="6"/><ellipse cx="-5" cy="-22" rx="5" ry="6"/><ellipse cx="5" cy="-22" rx="5" ry="6"/><ellipse cx="15" cy="-15" rx="5" ry="6"/></g><g transform="translate(920 428)"><ellipse rx="13" ry="11"/><ellipse cx="-15" cy="-15" rx="5" ry="6"/><ellipse cx="-5" cy="-22" rx="5" ry="6"/><ellipse cx="5" cy="-22" rx="5" ry="6"/><ellipse cx="15" cy="-15" rx="5" ry="6"/></g><g transform="translate(1080 308)"><ellipse rx="13" ry="11"/><ellipse cx="-15" cy="-15" rx="5" ry="6"/><ellipse cx="-5" cy="-22" rx="5" ry="6"/><ellipse cx="5" cy="-22" rx="5" ry="6"/><ellipse cx="15" cy="-15" rx="5" ry="6"/></g></g><g transform="translate(90 120)"><circle cx="60" cy="60" r="58" fill="#faf6ee" stroke="#e0a02b" stroke-width="5"/><circle cx="60" cy="60" r="46" fill="#241a33"/><path d="M24 56c8-14 26-14 34 0-8 14-26 14-34 0zM62 56c8-14 26-14 34 0-8 14-26 14-34 0z" fill="#f5c86a"/><path d="M41 46c-2 6-2 14 0 20M79 46c-2 6-2 14 0 20" stroke="#241a33" stroke-width="5" stroke-linecap="round"/></g><text x="90" y="330" font-family="Georgia, serif" font-size="96" letter-spacing="14" fill="#f5c86a">ZAVIK</text><text x="94" y="392" font-family="Arial, sans-serif" font-size="32" fill="#dfe3ea">Zarte Vierbeiner, kluge Katzenpflege</text><text x="94" y="446" font-family="Arial, sans-serif" font-size="28" fill="#e0a02b">Der Katzen-Ratgeber</text></svg>
